<svg width="32" height="31" viewBox="0 0 32 31" fill="none" xmlns="http://www.w3.org/2000/svg">
<path d="M28.6652 11.7783L22.3693 20.7431C19.3906 24.9846 17.9012 27.1053 15.8225 27.1053C13.7438 27.1053 12.2544 24.9846 9.27569 20.7431L2.89939 11.6639C1.76251 10.045 1.19406 9.23562 1.0427 8.34616C0.954465 7.82771 0.969338 7.29695 1.08646 6.78425C1.2874 5.90467 1.90028 5.12836 3.12603 3.57573C3.94142 2.54291 4.34911 2.0265 4.87314 1.67579C5.18067 1.46997 5.51527 1.30782 5.86737 1.19398C6.46735 1 7.12529 1 8.44118 1H23.064C24.3881 1 25.0501 1 25.6545 1.19708C25.9796 1.30308 26.2897 1.45031 26.5773 1.63518C27.1121 1.97891 27.5306 2.49192 28.3676 3.51793C29.6712 5.11594 30.323 5.91494 30.5309 6.83036C30.6418 7.31875 30.66 7.82363 30.5845 8.31874C30.4431 9.24674 29.8505 10.0906 28.6652 11.7783Z" stroke="#FEFBFC" stroke-width="1.5"/>
<path d="M26.1423 1.17255L21.3267 7.53594H30.4266" stroke="#FEFBFC" stroke-width="1.5"/>
<path d="M15.3058 1L10.3182 7.53537H20.4653" stroke="#FEFBFC" stroke-width="1.5"/>
<path d="M16.1641 1L21.1516 7.53537H11.0046" stroke="#FEFBFC" stroke-width="1.5"/>
<path d="M5.33107 1.17255L10.1466 7.53594H1.21793" stroke="#FEFBFC" stroke-width="1.5"/>
<path d="M10.3182 7.36349L14.8503 25.9165C15.0987 26.9335 16.5447 26.9335 16.7931 25.9165L21.3252 7.36349" stroke="#FEFBFC" stroke-width="1.5"/>
</svg>
