<svg width="44" height="44" viewBox="0 0 44 44" fill="none" xmlns="http://www.w3.org/2000/svg">
<g opacity="0.12">
<rect width="44" height="44" rx="13" fill="url(#paint0_linear_0_1)"/>
<rect width="44" height="44" rx="13" fill="url(#paint1_linear_0_1)"/>
</g>
<path fill-rule="evenodd" clip-rule="evenodd" d="M29.8976 12C32.4425 12 34.5131 14.0501 34.5131 16.5688L34.5143 19.5265C34.5143 19.7522 34.4242 19.9711 34.2634 20.1308C34.1038 20.2915 33.886 20.3816 33.6591 20.3816C32.7618 20.3816 32.0321 21.0977 32.0321 21.9779C32.0321 22.8581 32.7618 23.5742 33.6591 23.5742C34.1312 23.5742 34.5143 23.9573 34.5143 24.4293V27.3847C34.5143 29.9034 32.4437 31.9535 29.8988 31.9535H14.6155C12.0706 31.9535 10 29.9034 10 27.3847V24.4293C10 23.9573 10.3831 23.5742 10.8551 23.5742C11.7525 23.5742 12.4822 22.8581 12.4822 21.9779C12.4822 21.1227 11.7821 20.4774 10.8551 20.4774C10.6282 20.4774 10.4105 20.3873 10.2508 20.2265C10.0901 20.0669 10 19.848 10 19.6222L10.0011 16.5688C10.0011 14.0501 12.0717 12 14.6167 12H29.8976ZM29.8976 13.7103H25.2205L25.2212 15.9009C25.2212 16.3729 24.8381 16.756 24.3661 16.756C23.894 16.756 23.5109 16.3729 23.5109 15.9009L23.5102 13.7103H14.6167C13.0147 13.7103 11.7114 14.993 11.7114 16.5688L11.7103 18.8697C13.1549 19.2243 14.1925 20.4626 14.1925 21.9779C14.1925 23.508 13.1367 24.7987 11.7103 25.1739V27.3847C11.7103 28.9605 13.0135 30.2432 14.6155 30.2432H23.5102L23.5109 28.546C23.5109 28.0728 23.894 27.6909 24.3661 27.6909C24.8381 27.6909 25.2212 28.0728 25.2212 28.546L25.2205 30.2432H29.8988C31.5007 30.2432 32.804 28.9605 32.804 27.3847V25.1739C31.3776 24.7987 30.3218 23.508 30.3218 21.9779C30.3218 20.4466 31.3765 19.157 32.804 18.7819L32.8028 16.5688C32.8028 14.993 31.4996 13.7103 29.8976 13.7103ZM24.3661 18.2762C24.8381 18.2762 25.2212 18.6593 25.2212 19.1314V24.6283C25.2212 25.1003 24.8381 25.4834 24.3661 25.4834C23.894 25.4834 23.5109 25.1003 23.5109 24.6283V19.1314C23.5109 18.6593 23.894 18.2762 24.3661 18.2762Z" fill="url(#paint2_linear_0_1)"/>
<path fill-rule="evenodd" clip-rule="evenodd" d="M29.8976 12C32.4425 12 34.5131 14.0501 34.5131 16.5688L34.5143 19.5265C34.5143 19.7522 34.4242 19.9711 34.2634 20.1308C34.1038 20.2915 33.886 20.3816 33.6591 20.3816C32.7618 20.3816 32.0321 21.0977 32.0321 21.9779C32.0321 22.8581 32.7618 23.5742 33.6591 23.5742C34.1312 23.5742 34.5143 23.9573 34.5143 24.4293V27.3847C34.5143 29.9034 32.4437 31.9535 29.8988 31.9535H14.6155C12.0706 31.9535 10 29.9034 10 27.3847V24.4293C10 23.9573 10.3831 23.5742 10.8551 23.5742C11.7525 23.5742 12.4822 22.8581 12.4822 21.9779C12.4822 21.1227 11.7821 20.4774 10.8551 20.4774C10.6282 20.4774 10.4105 20.3873 10.2508 20.2265C10.0901 20.0669 10 19.848 10 19.6222L10.0011 16.5688C10.0011 14.0501 12.0717 12 14.6167 12H29.8976ZM29.8976 13.7103H25.2205L25.2212 15.9009C25.2212 16.3729 24.8381 16.756 24.3661 16.756C23.894 16.756 23.5109 16.3729 23.5109 15.9009L23.5102 13.7103H14.6167C13.0147 13.7103 11.7114 14.993 11.7114 16.5688L11.7103 18.8697C13.1549 19.2243 14.1925 20.4626 14.1925 21.9779C14.1925 23.508 13.1367 24.7987 11.7103 25.1739V27.3847C11.7103 28.9605 13.0135 30.2432 14.6155 30.2432H23.5102L23.5109 28.546C23.5109 28.0728 23.894 27.6909 24.3661 27.6909C24.8381 27.6909 25.2212 28.0728 25.2212 28.546L25.2205 30.2432H29.8988C31.5007 30.2432 32.804 28.9605 32.804 27.3847V25.1739C31.3776 24.7987 30.3218 23.508 30.3218 21.9779C30.3218 20.4466 31.3765 19.157 32.804 18.7819L32.8028 16.5688C32.8028 14.993 31.4996 13.7103 29.8976 13.7103ZM24.3661 18.2762C24.8381 18.2762 25.2212 18.6593 25.2212 19.1314V24.6283C25.2212 25.1003 24.8381 25.4834 24.3661 25.4834C23.894 25.4834 23.5109 25.1003 23.5109 24.6283V19.1314C23.5109 18.6593 23.894 18.2762 24.3661 18.2762Z" fill="url(#paint3_linear_0_1)"/>
<defs>
<linearGradient id="paint0_linear_0_1" x1="-1.5661" y1="6.93306e-06" x2="50.9356" y2="6.01395" gradientUnits="userSpaceOnUse">
<stop stop-color="#FFAE88"/>
<stop offset="1" stop-color="#8F93EA"/>
</linearGradient>
<linearGradient id="paint1_linear_0_1" x1="35.0508" y1="-36.6667" x2="-2.82967" y2="-13.5387" gradientUnits="userSpaceOnUse">
<stop stop-color="#5FD3FF"/>
<stop offset="1" stop-color="#63D6FF" stop-opacity="0"/>
</linearGradient>
<linearGradient id="paint2_linear_0_1" x1="9.12746" y1="12" x2="38.1867" y2="16.0895" gradientUnits="userSpaceOnUse">
<stop stop-color="#FFAE88"/>
<stop offset="1" stop-color="#8F93EA"/>
</linearGradient>
<linearGradient id="paint3_linear_0_1" x1="29.5283" y1="-4.62791" x2="10.988" y2="9.27926" gradientUnits="userSpaceOnUse">
<stop stop-color="#5FD3FF"/>
<stop offset="1" stop-color="#63D6FF" stop-opacity="0"/>
</linearGradient>
</defs>
</svg>
