<svg width="44" height="44" viewBox="0 0 44 44" fill="none" xmlns="http://www.w3.org/2000/svg">
<g opacity="0.12">
<rect width="44" height="44" rx="13" fill="url(#paint0_linear_0_1)"/>
<rect width="44" height="44" rx="13" fill="url(#paint1_linear_0_1)"/>
</g>
<path fill-rule="evenodd" clip-rule="evenodd" d="M16 15C16 11.6863 18.6863 9 22 9C25.3137 9 28 11.6863 28 15C28 17.0815 26.9401 18.9154 25.3305 19.9915C25.2735 20.021 25.2198 20.0558 25.1702 20.0951C24.2503 20.6686 23.1639 21 22 21C18.6863 21 16 18.3137 16 15ZM24.9861 22.4241C24.0634 22.7956 23.0556 23 22 23C20.9448 23 19.9373 22.7957 19.015 22.4245L18.2644 28.0751L21.4855 26.1425C21.8022 25.9525 22.1978 25.9525 22.5145 26.1425L25.7359 28.0753L24.9861 22.4241ZM17.1395 21.3547C15.2308 19.8926 14 17.59 14 15C14 10.5817 17.5817 7 22 7C26.4183 7 30 10.5817 30 15C30 17.5895 28.7696 19.8917 26.8616 21.3538L27.9913 29.8685C28.0418 30.2491 27.8699 30.6251 27.549 30.8358C27.228 31.0466 26.8148 31.055 26.4855 30.8575L22 28.1662L17.5145 30.8575C17.1852 31.0551 16.7719 31.0466 16.451 30.8358C16.13 30.625 15.9581 30.249 16.0087 29.8683L17.1395 21.3547Z" fill="url(#paint2_linear_0_1)"/>
<path fill-rule="evenodd" clip-rule="evenodd" d="M16 15C16 11.6863 18.6863 9 22 9C25.3137 9 28 11.6863 28 15C28 17.0815 26.9401 18.9154 25.3305 19.9915C25.2735 20.021 25.2198 20.0558 25.1702 20.0951C24.2503 20.6686 23.1639 21 22 21C18.6863 21 16 18.3137 16 15ZM24.9861 22.4241C24.0634 22.7956 23.0556 23 22 23C20.9448 23 19.9373 22.7957 19.015 22.4245L18.2644 28.0751L21.4855 26.1425C21.8022 25.9525 22.1978 25.9525 22.5145 26.1425L25.7359 28.0753L24.9861 22.4241ZM17.1395 21.3547C15.2308 19.8926 14 17.59 14 15C14 10.5817 17.5817 7 22 7C26.4183 7 30 10.5817 30 15C30 17.5895 28.7696 19.8917 26.8616 21.3538L27.9913 29.8685C28.0418 30.2491 27.8699 30.6251 27.549 30.8358C27.228 31.0466 26.8148 31.055 26.4855 30.8575L22 28.1662L17.5145 30.8575C17.1852 31.0551 16.7719 31.0466 16.451 30.8358C16.13 30.625 15.9581 30.249 16.0087 29.8683L17.1395 21.3547Z" fill="url(#paint3_linear_0_1)"/>
<defs>
<linearGradient id="paint0_linear_0_1" x1="-1.5661" y1="6.93306e-06" x2="50.9356" y2="6.01395" gradientUnits="userSpaceOnUse">
<stop stop-color="#FFAE88"/>
<stop offset="1" stop-color="#8F93EA"/>
</linearGradient>
<linearGradient id="paint1_linear_0_1" x1="35.0508" y1="-36.6667" x2="-2.82967" y2="-13.5387" gradientUnits="userSpaceOnUse">
<stop stop-color="#5FD3FF"/>
<stop offset="1" stop-color="#63D6FF" stop-opacity="0"/>
</linearGradient>
<linearGradient id="paint2_linear_0_1" x1="13.4305" y1="7" x2="32.6604" y2="8.46849" gradientUnits="userSpaceOnUse">
<stop stop-color="#FFAE88"/>
<stop offset="1" stop-color="#8F93EA"/>
</linearGradient>
<linearGradient id="paint3_linear_0_1" x1="26.7458" y1="-13" x2="10.5238" y2="-6.39713" gradientUnits="userSpaceOnUse">
<stop stop-color="#5FD3FF"/>
<stop offset="1" stop-color="#63D6FF" stop-opacity="0"/>
</linearGradient>
</defs>
</svg>
