<svg width="44" height="44" viewBox="0 0 44 44" fill="none" xmlns="http://www.w3.org/2000/svg">
<g opacity="0.12">
<rect width="44" height="44" rx="13" fill="url(#paint0_linear_0_1)"/>
<rect width="44" height="44" rx="13" fill="url(#paint1_linear_0_1)"/>
</g>
<path d="M34.6652 21.2333L28.3693 30.1981C25.3906 34.4396 23.9012 36.5603 21.8225 36.5603C19.7438 36.5603 18.2544 34.4396 15.2757 30.1982L8.89939 21.1189C7.76251 19.5 7.19406 18.6906 7.0427 17.8012C6.95447 17.2827 6.96934 16.752 7.08646 16.2393C7.2874 15.3597 7.90028 14.5834 9.12603 13.0307C9.94142 11.9979 10.3491 11.4815 10.8731 11.1308C11.1807 10.925 11.5153 10.7628 11.8674 10.649C12.4674 10.455 13.1253 10.455 14.4412 10.455H29.064C30.3881 10.455 31.0501 10.455 31.6545 10.6521C31.9796 10.7581 32.2897 10.9053 32.5773 11.0902C33.1121 11.4339 33.5306 11.9469 34.3676 12.9729C35.6712 14.5709 36.323 15.3699 36.5309 16.2854C36.6418 16.7738 36.66 17.2786 36.5845 17.7737C36.4431 18.7017 35.8505 19.5456 34.6652 21.2333Z" stroke="url(#paint2_linear_0_1)" stroke-width="1.5"/>
<path d="M34.6652 21.2333L28.3693 30.1981C25.3906 34.4396 23.9012 36.5603 21.8225 36.5603C19.7438 36.5603 18.2544 34.4396 15.2757 30.1982L8.89939 21.1189C7.76251 19.5 7.19406 18.6906 7.0427 17.8012C6.95447 17.2827 6.96934 16.752 7.08646 16.2393C7.2874 15.3597 7.90028 14.5834 9.12603 13.0307C9.94142 11.9979 10.3491 11.4815 10.8731 11.1308C11.1807 10.925 11.5153 10.7628 11.8674 10.649C12.4674 10.455 13.1253 10.455 14.4412 10.455H29.064C30.3881 10.455 31.0501 10.455 31.6545 10.6521C31.9796 10.7581 32.2897 10.9053 32.5773 11.0902C33.1121 11.4339 33.5306 11.9469 34.3676 12.9729C35.6712 14.5709 36.323 15.3699 36.5309 16.2854C36.6418 16.7738 36.66 17.2786 36.5845 17.7737C36.4431 18.7017 35.8505 19.5456 34.6652 21.2333Z" stroke="url(#paint3_linear_0_1)" stroke-width="1.5"/>
<path fill-rule="evenodd" clip-rule="evenodd" d="M17.6547 17.7409L17.6543 17.7404H25.819L25.8186 17.7409H26.3278L22.0646 35.1936C22.0444 35.2762 22.0087 35.3151 21.9779 35.3375C21.9408 35.3645 21.8862 35.3843 21.8217 35.3843C21.7572 35.3843 21.7026 35.3645 21.6655 35.3375C21.6347 35.3151 21.599 35.2762 21.5788 35.1936L17.3156 17.7409H17.6547ZM15.7715 17.7409H7.21793V16.2409H14.6385L10.733 11.0801L11.9291 10.1749L16.2344 15.864L20.7095 10L21.7349 10.7825L22.7603 10L27.2372 15.8663L31.5442 10.1749L32.7403 11.0801L28.8348 16.2409H36.4265V17.7409H27.8719L23.5217 35.5495C23.087 37.3292 20.5564 37.3292 20.1217 35.5495L15.7715 17.7409ZM17.8341 16.2404H25.6358L21.7349 11.1289L17.8341 16.2404Z" fill="url(#paint4_linear_0_1)"/>
<path fill-rule="evenodd" clip-rule="evenodd" d="M17.6547 17.7409L17.6543 17.7404H25.819L25.8186 17.7409H26.3278L22.0646 35.1936C22.0444 35.2762 22.0087 35.3151 21.9779 35.3375C21.9408 35.3645 21.8862 35.3843 21.8217 35.3843C21.7572 35.3843 21.7026 35.3645 21.6655 35.3375C21.6347 35.3151 21.599 35.2762 21.5788 35.1936L17.3156 17.7409H17.6547ZM15.7715 17.7409H7.21793V16.2409H14.6385L10.733 11.0801L11.9291 10.1749L16.2344 15.864L20.7095 10L21.7349 10.7825L22.7603 10L27.2372 15.8663L31.5442 10.1749L32.7403 11.0801L28.8348 16.2409H36.4265V17.7409H27.8719L23.5217 35.5495C23.087 37.3292 20.5564 37.3292 20.1217 35.5495L15.7715 17.7409ZM17.8341 16.2404H25.6358L21.7349 11.1289L17.8341 16.2404Z" fill="url(#paint5_linear_0_1)"/>
<defs>
<linearGradient id="paint0_linear_0_1" x1="-1.5661" y1="6.93306e-06" x2="50.9356" y2="6.01395" gradientUnits="userSpaceOnUse">
<stop stop-color="#FFAE88"/>
<stop offset="1" stop-color="#8F93EA"/>
</linearGradient>
<linearGradient id="paint1_linear_0_1" x1="35.0508" y1="-36.6667" x2="-2.82967" y2="-13.5387" gradientUnits="userSpaceOnUse">
<stop stop-color="#5FD3FF"/>
<stop offset="1" stop-color="#63D6FF" stop-opacity="0"/>
</linearGradient>
<linearGradient id="paint2_linear_0_1" x1="4.87365" y1="10.455" x2="42.5427" y2="15.1529" gradientUnits="userSpaceOnUse">
<stop stop-color="#FFAE88"/>
<stop offset="1" stop-color="#8F93EA"/>
</linearGradient>
<linearGradient id="paint3_linear_0_1" x1="31.2087" y1="-13.766" x2="5.27068" y2="3.47605" gradientUnits="userSpaceOnUse">
<stop stop-color="#5FD3FF"/>
<stop offset="1" stop-color="#63D6FF" stop-opacity="0"/>
</linearGradient>
<linearGradient id="paint4_linear_0_1" x1="6.1783" y1="10" x2="40.9494" y2="14.3273" gradientUnits="userSpaceOnUse">
<stop stop-color="#FFAE88"/>
<stop offset="1" stop-color="#8F93EA"/>
</linearGradient>
<linearGradient id="paint5_linear_0_1" x1="30.4858" y1="-12.4035" x2="6.51376" y2="3.498" gradientUnits="userSpaceOnUse">
<stop stop-color="#5FD3FF"/>
<stop offset="1" stop-color="#63D6FF" stop-opacity="0"/>
</linearGradient>
</defs>
</svg>
