<svg width="44" height="44" viewBox="0 0 44 44" fill="none" xmlns="http://www.w3.org/2000/svg">
<g opacity="0.12">
<rect width="44" height="44" rx="13" fill="url(#paint0_linear_0_1)"/>
<rect width="44" height="44" rx="13" fill="url(#paint1_linear_0_1)"/>
</g>
<path fill-rule="evenodd" clip-rule="evenodd" d="M27.5576 10C31.6972 10 35.0644 13.3672 35.0644 17.5081V26.4919C35.0644 30.6315 31.6972 34 27.5576 34H16.7374C12.5979 34 9.22937 30.6315 9.22937 26.4919V17.5081C9.22937 13.3672 12.5979 10 16.7374 10H27.5576ZM27.5576 11.8776H16.7374C13.6331 11.8776 11.107 14.4037 11.107 17.5081V26.4919C11.107 29.5963 13.6331 32.1224 16.7374 32.1224H27.5576C30.662 32.1224 33.1868 29.5963 33.1868 26.4919V26.1414L29.0586 26.1422C26.684 26.1422 24.7513 24.2107 24.7501 21.8374C24.7501 19.4616 26.6828 17.5288 29.0586 17.5276L33.1868 17.5268V17.5081C33.1868 14.4037 30.662 11.8776 27.5576 11.8776ZM33.1868 19.4045L29.0586 19.4052C27.718 19.4065 26.6277 20.4968 26.6277 21.8361C26.6277 23.1743 27.7192 24.2646 29.0586 24.2646L33.1868 24.2638V19.4045ZM29.6314 20.8197C30.1497 20.8197 30.5703 21.2403 30.5703 21.7585C30.5703 22.2768 30.1497 22.6974 29.6314 22.6974H29.2409C28.7227 22.6974 28.3021 22.2768 28.3021 21.7585C28.3021 21.2403 28.7227 20.8197 29.2409 20.8197H29.6314ZM22.6044 15.6806C23.1227 15.6806 23.5432 16.1012 23.5432 16.6194C23.5432 17.1377 23.1227 17.5583 22.6044 17.5583H15.8462C15.3279 17.5583 14.9074 17.1377 14.9074 16.6194C14.9074 16.1012 15.3279 15.6806 15.8462 15.6806H22.6044Z" fill="url(#paint2_linear_0_1)"/>
<path fill-rule="evenodd" clip-rule="evenodd" d="M27.5576 10C31.6972 10 35.0644 13.3672 35.0644 17.5081V26.4919C35.0644 30.6315 31.6972 34 27.5576 34H16.7374C12.5979 34 9.22937 30.6315 9.22937 26.4919V17.5081C9.22937 13.3672 12.5979 10 16.7374 10H27.5576ZM27.5576 11.8776H16.7374C13.6331 11.8776 11.107 14.4037 11.107 17.5081V26.4919C11.107 29.5963 13.6331 32.1224 16.7374 32.1224H27.5576C30.662 32.1224 33.1868 29.5963 33.1868 26.4919V26.1414L29.0586 26.1422C26.684 26.1422 24.7513 24.2107 24.7501 21.8374C24.7501 19.4616 26.6828 17.5288 29.0586 17.5276L33.1868 17.5268V17.5081C33.1868 14.4037 30.662 11.8776 27.5576 11.8776ZM33.1868 19.4045L29.0586 19.4052C27.718 19.4065 26.6277 20.4968 26.6277 21.8361C26.6277 23.1743 27.7192 24.2646 29.0586 24.2646L33.1868 24.2638V19.4045ZM29.6314 20.8197C30.1497 20.8197 30.5703 21.2403 30.5703 21.7585C30.5703 22.2768 30.1497 22.6974 29.6314 22.6974H29.2409C28.7227 22.6974 28.3021 22.2768 28.3021 21.7585C28.3021 21.2403 28.7227 20.8197 29.2409 20.8197H29.6314ZM22.6044 15.6806C23.1227 15.6806 23.5432 16.1012 23.5432 16.6194C23.5432 17.1377 23.1227 17.5583 22.6044 17.5583H15.8462C15.3279 17.5583 14.9074 17.1377 14.9074 16.6194C14.9074 16.1012 15.3279 15.6806 15.8462 15.6806H22.6044Z" fill="url(#paint3_linear_0_1)"/>
<defs>
<linearGradient id="paint0_linear_0_1" x1="-1.5661" y1="6.93306e-06" x2="50.9356" y2="6.01395" gradientUnits="userSpaceOnUse">
<stop stop-color="#FFAE88"/>
<stop offset="1" stop-color="#8F93EA"/>
</linearGradient>
<linearGradient id="paint1_linear_0_1" x1="35.0508" y1="-36.6667" x2="-2.82967" y2="-13.5387" gradientUnits="userSpaceOnUse">
<stop stop-color="#5FD3FF"/>
<stop offset="1" stop-color="#63D6FF" stop-opacity="0"/>
</linearGradient>
<linearGradient id="paint2_linear_0_1" x1="8.30982" y1="10" x2="39.0735" y2="13.7934" gradientUnits="userSpaceOnUse">
<stop stop-color="#FFAE88"/>
<stop offset="1" stop-color="#8F93EA"/>
</linearGradient>
<linearGradient id="paint3_linear_0_1" x1="29.8099" y1="-10" x2="8.48719" y2="4.01397" gradientUnits="userSpaceOnUse">
<stop stop-color="#5FD3FF"/>
<stop offset="1" stop-color="#63D6FF" stop-opacity="0"/>
</linearGradient>
</defs>
</svg>
