<svg width="356" height="283" viewBox="0 0 356 283" fill="none" xmlns="http://www.w3.org/2000/svg">
<g filter="url(#filter0_b_1_90)">
<path fill-rule="evenodd" clip-rule="evenodd" d="M342.241 47.2718C340.978 46.1778 344.136 48.9129 343.368 48.2996C341.88 47.1122 341.254 46.6581 339.662 45.6147C338.84 45.0757 335.557 43.1076 328.993 39.1713C310.45 28.0532 289.509 19.0311 266.917 12.4567C238.656 4.23278 208.367 0 177.779 0C147.19 0 116.901 4.23278 88.6404 12.4567C66.8108 18.8092 46.522 27.447 28.4498 38.0529C19.6419 43.222 15.2379 45.8065 14.4278 46.3258C11.9442 47.9176 11.417 48.3074 9.16761 50.2159C8.4339 50.8384 14.0293 45.6999 11.7911 47.7553C4.61894 54.3419 3.80896 63.8394 2.18899 82.8344C-1.37691 124.646 -0.0900069 165.929 2.5232 197.46C4.11184 216.628 4.90616 226.212 12.0831 232.819C19.2601 239.426 29.441 239.426 49.8027 239.426H134.723C134.875 239.426 134.998 239.55 134.998 239.702C134.998 263.285 154.116 282.403 177.7 282.403C201.283 282.403 220.401 263.285 220.401 239.702C220.401 239.55 220.524 239.426 220.676 239.426H302.243C322.591 239.426 332.765 239.426 339.862 233.138C346.959 226.849 348.135 217.162 350.485 197.787C357.391 140.856 355.895 99.2007 352.03 72.3976C350.202 59.7158 349.288 53.3749 342.241 47.2718Z" fill="white" fill-opacity="0.49"/>
</g>
<defs>
<filter id="filter0_b_1_90" x="-81.5485" y="-81.5485" width="518.393" height="445.5" filterUnits="userSpaceOnUse" color-interpolation-filters="sRGB">
<feFlood flood-opacity="0" result="BackgroundImageFix"/>
<feGaussianBlur in="BackgroundImageFix" stdDeviation="40.7742"/>
<feComposite in2="SourceAlpha" operator="in" result="effect1_backgroundBlur_1_90"/>
<feBlend mode="normal" in="SourceGraphic" in2="effect1_backgroundBlur_1_90" result="shape"/>
</filter>
</defs>
</svg>
